<?xml version="1.0" encoding="utf-8"?>
<!-- Generator: Adobe Illustrator 17.1.0, SVG Export Plug-In . SVG Version: 6.00 Build 0)  -->
<!DOCTYPE svg PUBLIC "-//W3C//DTD SVG 1.1//EN" "http://www.w3.org/Graphics/SVG/1.1/DTD/svg11.dtd">
<svg version="1.1" id="Layer_1" xmlns="http://www.w3.org/2000/svg" xmlns:xlink="http://www.w3.org/1999/xlink" x="0px" y="0px"
	 width="64.011px" height="47.52px" viewBox="0 0 64.011 47.52" enable-background="new 0 0 64.011 47.52" xml:space="preserve">
<path fill="#FFFFFF" d="M58.114,22.713l-6.482-1.205c-0.158-0.03-0.33-0.178-0.384-0.33l-1.987-4.635
	c-0.074-0.143-0.06-0.368,0.032-0.501l3.777-5.504c0.09-0.132,0.073-0.334-0.041-0.448l-4.717-4.717
	c-0.114-0.114-0.315-0.132-0.448-0.041l-5.601,3.844c-0.132,0.091-0.36,0.107-0.504,0.036l-4.493-1.839
	c-0.153-0.05-0.301-0.221-0.331-0.379l-1.248-6.704C35.658,0.13,35.502,0,35.342,0H28.67c-0.16,0-0.316,0.129-0.345,0.287
	l-1.248,6.704c-0.03,0.158-0.178,0.329-0.331,0.379l-4.494,1.839c-0.144,0.071-0.371,0.055-0.504-0.036l-5.601-3.844
	C16.015,5.24,15.814,5.258,15.7,5.372l-4.717,4.717c-0.114,0.114-0.132,0.315-0.041,0.448l3.777,5.504
	c0.091,0.133,0.105,0.358,0.031,0.501l-1.987,4.635c-0.053,0.152-0.225,0.3-0.384,0.33l-6.481,1.205
	c-0.159,0.03-0.287,0.185-0.287,0.346l0,6.671c0,0.161,0.129,0.317,0.287,0.346l6.323,1.177c0.158,0.029,0.327,0.179,0.375,0.332
	l1.974,4.931c0.071,0.145,0.054,0.371-0.037,0.504l-3.591,5.233c-0.091,0.132-0.072,0.334,0.041,0.448l4.718,4.717
	c0.114,0.113,0.315,0.132,0.448,0.041l5.141-3.529c0.132-0.091,0.354-0.098,0.493-0.017l2.267,1.21
	c0.144,0.073,0.311,0.011,0.373-0.137l4.675-11.295c0.062-0.149,0-0.338-0.137-0.422l-0.567-0.347
	c-0.105-0.064-0.247-0.174-0.359-0.275c-2.047-1.311-3.405-3.603-3.405-6.214c0-4.075,3.303-7.378,7.378-7.378
	c4.074,0,7.377,3.303,7.377,7.378c0,2.611-1.358,4.904-3.405,6.214c-0.111,0.101-0.254,0.211-0.358,0.275l-0.567,0.347
	c-0.136,0.084-0.199,0.274-0.137,0.422l4.674,11.296c0.062,0.149,0.229,0.21,0.373,0.137l2.267-1.21
	c0.139-0.081,0.36-0.074,0.493,0.017l5.141,3.529c0.132,0.09,0.334,0.072,0.448-0.041l4.718-4.717
	c0.114-0.114,0.132-0.316,0.041-0.448l-3.592-5.233c-0.091-0.132-0.108-0.359-0.037-0.504l1.974-4.931
	c0.049-0.153,0.216-0.304,0.375-0.332l6.323-1.177c0.158-0.029,0.287-0.185,0.287-0.346l0.001-6.671
	C58.402,22.899,58.272,22.743,58.114,22.713"/>
</svg>
